<svg id="Capa_1" data-name="Capa 1" xmlns="http://www.w3.org/2000/svg" viewBox="0 0 192.47 248.49"><defs><style>.cls-1{fill:#fff;}.cls-1,.cls-2{stroke:#000;stroke-linejoin:round;stroke-width:20px;}.cls-2{fill:#ff0;}</style></defs><title>favicon</title><path class="cls-1" d="M12.55,28.67C9,34.61,10,41.16,10.55,44.41c1.82,11.11,7.28,37.65,15.54,73.46,19-4,37.89,4.89,48,21.5A45.92,45.92,0,0,1,70.47,192l44.65,36.94a41,41,0,0,0,61.33-52.76,42.19,42.19,0,0,0-9.14-10.59c-18.27-15.11-36.77-29.46-55-44.58a12.52,12.52,0,0,1-2.78-4.59c-5.75-29.2-12.41-59.82-18.16-89-2.43-11.44-12.25-19.07-21.94-17L23.65,20C20.49,21.17,15.53,23.63,12.55,28.67Z"/><path class="cls-2" d="M26.09,117.87a3.89,3.89,0,0,1,.12.49c1.25,5.39,2.55,11,3.93,16.79h0l.14.67A97.26,97.26,0,0,0,42.85,163a107.8,107.8,0,0,0,17.44,20.51l9.49,7.85.69.57a45.92,45.92,0,0,0,3.59-52.59C64,122.76,45.11,113.83,26.09,117.87Z"/></svg>